# xmcd
#
# Track frame offsets:
#	150
#	21007
#	43157
#	63262
#	81658
#	95368
#	133657
#	149217
#	166109
#	189656
#	225966
#
# Disc length: 3640 seconds
#
# Revision: 1
# Processed by: cddbd v1.5.2PL0 Copyright (c) Steve Scherf et al.
# Submitted via: audiograbber 1.83.01
#
DISCID=950e360b
DTITLE=The Rolling Stones - From The Vault - Live In Leeds [Roundhay Park 1982]
DTITLE=[CD 2)
DYEAR=2015
DGENRE=Rock
TTITLE0=Little T&A [live]
TTITLE1=Angie [live]
TTITLE2=Tumbling Dice [live]
TTITLE3=She's So Cold [live]
TTITLE4=Hang Fire [live]
TTITLE5=Miss You [live]
TTITLE6=Honky Tonk Women [live]
TTITLE7=Brown Sugar [live]
TTITLE8=Start Me Up [live]
TTITLE9=Jumpin' Jack Flash [live]
TTITLE10=(I Can't Get No) Satisfaction [live]
EXTD=
EXTT0=
EXTT1=
EXTT2=
EXTT3=
EXTT4=
EXTT5=
EXTT6=
EXTT7=
EXTT8=
EXTT9=
EXTT10=
PLAYORDER=
